<mxfile host="app.diagrams.net" modified="2024-02-10T00:41:21.417Z" agent="Mozilla/5.0 (Macintosh; Intel Mac OS X 10_15_7) AppleWebKit/537.36 (KHTML, like Gecko) Chrome/119.0.0.0 Safari/537.36" etag="hZyXFv-e4UInkjSbkTHN" version="23.1.2" type="github">
  <diagram id="C5RBs43oDa-KdzZeNtuy" name="Page-1">
    <mxGraphModel dx="3674" dy="1121" grid="1" gridSize="10" guides="1" tooltips="1" connect="1" arrows="1" fold="1" page="1" pageScale="1" pageWidth="1600" pageHeight="1200" math="0" shadow="0">
      <root>
        <mxCell id="WIyWlLk6GJQsqaUBKTNV-0" />
        <mxCell id="WIyWlLk6GJQsqaUBKTNV-1" parent="WIyWlLk6GJQsqaUBKTNV-0" />
        <mxCell id="c2-VKMNBaWmHMHKHy4jP-7" style="edgeStyle=orthogonalEdgeStyle;rounded=0;orthogonalLoop=1;jettySize=auto;html=1;exitX=0.5;exitY=0;exitDx=0;exitDy=0;" edge="1" parent="WIyWlLk6GJQsqaUBKTNV-1" source="c2-VKMNBaWmHMHKHy4jP-0">
          <mxGeometry relative="1" as="geometry">
            <mxPoint x="105" y="1460" as="targetPoint" />
          </mxGeometry>
        </mxCell>
        <mxCell id="c2-VKMNBaWmHMHKHy4jP-0" value="登陆" style="rounded=1;whiteSpace=wrap;html=1;" vertex="1" parent="WIyWlLk6GJQsqaUBKTNV-1">
          <mxGeometry x="80" y="1617.5" width="50" height="35" as="geometry" />
        </mxCell>
        <mxCell id="c2-VKMNBaWmHMHKHy4jP-1" value="" style="endArrow=none;html=1;rounded=0;" edge="1" parent="WIyWlLk6GJQsqaUBKTNV-1">
          <mxGeometry width="50" height="50" relative="1" as="geometry">
            <mxPoint y="1020" as="sourcePoint" />
            <mxPoint x="1680" y="1020" as="targetPoint" />
          </mxGeometry>
        </mxCell>
        <mxCell id="c2-VKMNBaWmHMHKHy4jP-2" value="" style="endArrow=none;html=1;rounded=0;" edge="1" parent="WIyWlLk6GJQsqaUBKTNV-1" source="c2-VKMNBaWmHMHKHy4jP-37">
          <mxGeometry width="50" height="50" relative="1" as="geometry">
            <mxPoint x="-10" y="1460" as="sourcePoint" />
            <mxPoint x="1670" y="1460" as="targetPoint" />
          </mxGeometry>
        </mxCell>
        <mxCell id="c2-VKMNBaWmHMHKHy4jP-3" value="" style="endArrow=none;html=1;rounded=0;" edge="1" parent="WIyWlLk6GJQsqaUBKTNV-1">
          <mxGeometry width="50" height="50" relative="1" as="geometry">
            <mxPoint x="-10" y="420" as="sourcePoint" />
            <mxPoint x="1670" y="420" as="targetPoint" />
          </mxGeometry>
        </mxCell>
        <mxCell id="c2-VKMNBaWmHMHKHy4jP-4" value="IM SDK" style="text;html=1;strokeColor=none;fillColor=none;align=center;verticalAlign=middle;whiteSpace=wrap;rounded=0;" vertex="1" parent="WIyWlLk6GJQsqaUBKTNV-1">
          <mxGeometry x="-70" y="1240" width="60" height="30" as="geometry" />
        </mxCell>
        <mxCell id="c2-VKMNBaWmHMHKHy4jP-5" value="小程序" style="text;html=1;strokeColor=none;fillColor=none;align=center;verticalAlign=middle;whiteSpace=wrap;rounded=0;" vertex="1" parent="WIyWlLk6GJQsqaUBKTNV-1">
          <mxGeometry x="-70" y="1620" width="60" height="30" as="geometry" />
        </mxCell>
        <mxCell id="c2-VKMNBaWmHMHKHy4jP-6" value="IM Server" style="text;html=1;strokeColor=none;fillColor=none;align=center;verticalAlign=middle;whiteSpace=wrap;rounded=0;" vertex="1" parent="WIyWlLk6GJQsqaUBKTNV-1">
          <mxGeometry x="-70" y="770" width="60" height="30" as="geometry" />
        </mxCell>
        <mxCell id="c2-VKMNBaWmHMHKHy4jP-12" style="edgeStyle=orthogonalEdgeStyle;rounded=0;orthogonalLoop=1;jettySize=auto;html=1;exitX=0.5;exitY=0;exitDx=0;exitDy=0;" edge="1" parent="WIyWlLk6GJQsqaUBKTNV-1" source="c2-VKMNBaWmHMHKHy4jP-8" target="c2-VKMNBaWmHMHKHy4jP-11">
          <mxGeometry relative="1" as="geometry" />
        </mxCell>
        <mxCell id="c2-VKMNBaWmHMHKHy4jP-8" value="HTTP" style="rounded=1;whiteSpace=wrap;html=1;" vertex="1" parent="WIyWlLk6GJQsqaUBKTNV-1">
          <mxGeometry x="45" y="1230" width="120" height="60" as="geometry" />
        </mxCell>
        <mxCell id="c2-VKMNBaWmHMHKHy4jP-9" value="业务 Server" style="text;html=1;strokeColor=none;fillColor=none;align=center;verticalAlign=middle;whiteSpace=wrap;rounded=0;" vertex="1" parent="WIyWlLk6GJQsqaUBKTNV-1">
          <mxGeometry x="-60" y="300" width="60" height="30" as="geometry" />
        </mxCell>
        <mxCell id="c2-VKMNBaWmHMHKHy4jP-14" style="edgeStyle=orthogonalEdgeStyle;rounded=0;orthogonalLoop=1;jettySize=auto;html=1;exitX=0.75;exitY=1;exitDx=0;exitDy=0;entryX=0.75;entryY=0;entryDx=0;entryDy=0;" edge="1" parent="WIyWlLk6GJQsqaUBKTNV-1" source="c2-VKMNBaWmHMHKHy4jP-11" target="c2-VKMNBaWmHMHKHy4jP-8">
          <mxGeometry relative="1" as="geometry" />
        </mxCell>
        <mxCell id="c2-VKMNBaWmHMHKHy4jP-15" value="登陆成功" style="edgeLabel;html=1;align=center;verticalAlign=middle;resizable=0;points=[];" vertex="1" connectable="0" parent="c2-VKMNBaWmHMHKHy4jP-14">
          <mxGeometry x="0.4361" y="-2" relative="1" as="geometry">
            <mxPoint as="offset" />
          </mxGeometry>
        </mxCell>
        <mxCell id="c2-VKMNBaWmHMHKHy4jP-21" style="edgeStyle=orthogonalEdgeStyle;rounded=0;orthogonalLoop=1;jettySize=auto;html=1;exitX=1;exitY=0.5;exitDx=0;exitDy=0;entryX=0;entryY=0.5;entryDx=0;entryDy=0;" edge="1" parent="WIyWlLk6GJQsqaUBKTNV-1" source="c2-VKMNBaWmHMHKHy4jP-11" target="c2-VKMNBaWmHMHKHy4jP-19">
          <mxGeometry relative="1" as="geometry" />
        </mxCell>
        <mxCell id="c2-VKMNBaWmHMHKHy4jP-22" value="生成" style="edgeLabel;html=1;align=center;verticalAlign=middle;resizable=0;points=[];" vertex="1" connectable="0" parent="c2-VKMNBaWmHMHKHy4jP-21">
          <mxGeometry x="-0.2" y="2" relative="1" as="geometry">
            <mxPoint as="offset" />
          </mxGeometry>
        </mxCell>
        <mxCell id="c2-VKMNBaWmHMHKHy4jP-11" value="Socket Login" style="rounded=1;whiteSpace=wrap;html=1;" vertex="1" parent="WIyWlLk6GJQsqaUBKTNV-1">
          <mxGeometry x="45" y="755" width="120" height="60" as="geometry" />
        </mxCell>
        <mxCell id="c2-VKMNBaWmHMHKHy4jP-13" value="Token&lt;br&gt;DeviceId" style="shape=note;whiteSpace=wrap;html=1;backgroundOutline=1;darkOpacity=0.05;" vertex="1" parent="WIyWlLk6GJQsqaUBKTNV-1">
          <mxGeometry x="20" y="1070" width="80" height="100" as="geometry" />
        </mxCell>
        <mxCell id="c2-VKMNBaWmHMHKHy4jP-16" style="edgeStyle=orthogonalEdgeStyle;rounded=0;orthogonalLoop=1;jettySize=auto;html=1;exitX=1;exitY=0.5;exitDx=0;exitDy=0;entryX=0;entryY=0.5;entryDx=0;entryDy=0;" edge="1" parent="WIyWlLk6GJQsqaUBKTNV-1" source="c2-VKMNBaWmHMHKHy4jP-8" target="c2-VKMNBaWmHMHKHy4jP-17">
          <mxGeometry relative="1" as="geometry">
            <mxPoint x="240" y="1260" as="targetPoint" />
          </mxGeometry>
        </mxCell>
        <mxCell id="c2-VKMNBaWmHMHKHy4jP-31" value="创建" style="edgeLabel;html=1;align=center;verticalAlign=middle;resizable=0;points=[];" vertex="1" connectable="0" parent="c2-VKMNBaWmHMHKHy4jP-16">
          <mxGeometry x="0.0933" y="-4" relative="1" as="geometry">
            <mxPoint y="-4" as="offset" />
          </mxGeometry>
        </mxCell>
        <mxCell id="c2-VKMNBaWmHMHKHy4jP-33" style="edgeStyle=orthogonalEdgeStyle;rounded=0;orthogonalLoop=1;jettySize=auto;html=1;exitX=1;exitY=0.5;exitDx=0;exitDy=0;entryX=0;entryY=0.5;entryDx=0;entryDy=0;" edge="1" parent="WIyWlLk6GJQsqaUBKTNV-1" source="c2-VKMNBaWmHMHKHy4jP-17" target="c2-VKMNBaWmHMHKHy4jP-34">
          <mxGeometry relative="1" as="geometry">
            <mxPoint x="450" y="1260" as="targetPoint" />
          </mxGeometry>
        </mxCell>
        <mxCell id="c2-VKMNBaWmHMHKHy4jP-35" value="通知" style="edgeLabel;html=1;align=center;verticalAlign=middle;resizable=0;points=[];" vertex="1" connectable="0" parent="c2-VKMNBaWmHMHKHy4jP-33">
          <mxGeometry x="-0.0286" y="-2" relative="1" as="geometry">
            <mxPoint y="-2" as="offset" />
          </mxGeometry>
        </mxCell>
        <mxCell id="c2-VKMNBaWmHMHKHy4jP-17" value="Socket链接" style="rounded=0;whiteSpace=wrap;html=1;" vertex="1" parent="WIyWlLk6GJQsqaUBKTNV-1">
          <mxGeometry x="240" y="1230" width="120" height="60" as="geometry" />
        </mxCell>
        <mxCell id="c2-VKMNBaWmHMHKHy4jP-20" style="edgeStyle=orthogonalEdgeStyle;rounded=0;orthogonalLoop=1;jettySize=auto;html=1;exitX=0.5;exitY=1;exitDx=0;exitDy=0;" edge="1" parent="WIyWlLk6GJQsqaUBKTNV-1" source="c2-VKMNBaWmHMHKHy4jP-19" target="c2-VKMNBaWmHMHKHy4jP-17">
          <mxGeometry relative="1" as="geometry" />
        </mxCell>
        <mxCell id="c2-VKMNBaWmHMHKHy4jP-32" value="5秒一次 心跳" style="edgeLabel;html=1;align=center;verticalAlign=middle;resizable=0;points=[];" vertex="1" connectable="0" parent="c2-VKMNBaWmHMHKHy4jP-20">
          <mxGeometry x="-0.253" y="-2" relative="1" as="geometry">
            <mxPoint as="offset" />
          </mxGeometry>
        </mxCell>
        <mxCell id="c2-VKMNBaWmHMHKHy4jP-19" value="Socket 会话" style="rounded=1;whiteSpace=wrap;html=1;" vertex="1" parent="WIyWlLk6GJQsqaUBKTNV-1">
          <mxGeometry x="240" y="755" width="120" height="60" as="geometry" />
        </mxCell>
        <mxCell id="c2-VKMNBaWmHMHKHy4jP-24" style="edgeStyle=orthogonalEdgeStyle;rounded=0;orthogonalLoop=1;jettySize=auto;html=1;exitX=0.5;exitY=0;exitDx=0;exitDy=0;entryX=0.5;entryY=1;entryDx=0;entryDy=0;" edge="1" parent="WIyWlLk6GJQsqaUBKTNV-1" source="c2-VKMNBaWmHMHKHy4jP-23" target="c2-VKMNBaWmHMHKHy4jP-27">
          <mxGeometry relative="1" as="geometry">
            <mxPoint x="300" y="1300" as="targetPoint" />
          </mxGeometry>
        </mxCell>
        <mxCell id="c2-VKMNBaWmHMHKHy4jP-23" value="退出" style="rounded=1;whiteSpace=wrap;html=1;" vertex="1" parent="WIyWlLk6GJQsqaUBKTNV-1">
          <mxGeometry x="275" y="1617.5" width="50" height="35" as="geometry" />
        </mxCell>
        <mxCell id="c2-VKMNBaWmHMHKHy4jP-26" style="edgeStyle=orthogonalEdgeStyle;rounded=0;orthogonalLoop=1;jettySize=auto;html=1;exitX=0.5;exitY=0;exitDx=0;exitDy=0;" edge="1" parent="WIyWlLk6GJQsqaUBKTNV-1" source="c2-VKMNBaWmHMHKHy4jP-25" target="c2-VKMNBaWmHMHKHy4jP-8">
          <mxGeometry relative="1" as="geometry" />
        </mxCell>
        <mxCell id="c2-VKMNBaWmHMHKHy4jP-25" value="调用" style="text;html=1;strokeColor=none;fillColor=none;align=center;verticalAlign=middle;whiteSpace=wrap;rounded=0;" vertex="1" parent="WIyWlLk6GJQsqaUBKTNV-1">
          <mxGeometry x="75" y="1430" width="60" height="30" as="geometry" />
        </mxCell>
        <mxCell id="c2-VKMNBaWmHMHKHy4jP-28" style="edgeStyle=orthogonalEdgeStyle;rounded=0;orthogonalLoop=1;jettySize=auto;html=1;entryX=0.75;entryY=1;entryDx=0;entryDy=0;" edge="1" parent="WIyWlLk6GJQsqaUBKTNV-1" source="c2-VKMNBaWmHMHKHy4jP-27" target="c2-VKMNBaWmHMHKHy4jP-8">
          <mxGeometry relative="1" as="geometry" />
        </mxCell>
        <mxCell id="c2-VKMNBaWmHMHKHy4jP-27" value="调用" style="text;html=1;strokeColor=none;fillColor=none;align=center;verticalAlign=middle;whiteSpace=wrap;rounded=0;" vertex="1" parent="WIyWlLk6GJQsqaUBKTNV-1">
          <mxGeometry x="270" y="1430" width="60" height="30" as="geometry" />
        </mxCell>
        <mxCell id="c2-VKMNBaWmHMHKHy4jP-29" style="edgeStyle=orthogonalEdgeStyle;rounded=0;orthogonalLoop=1;jettySize=auto;html=1;entryX=0.5;entryY=1;entryDx=0;entryDy=0;exitX=0.5;exitY=0;exitDx=0;exitDy=0;" edge="1" parent="WIyWlLk6GJQsqaUBKTNV-1" source="c2-VKMNBaWmHMHKHy4jP-27" target="c2-VKMNBaWmHMHKHy4jP-17">
          <mxGeometry relative="1" as="geometry">
            <mxPoint x="280" y="1455" as="sourcePoint" />
            <mxPoint x="410" y="1290" as="targetPoint" />
          </mxGeometry>
        </mxCell>
        <mxCell id="c2-VKMNBaWmHMHKHy4jP-30" value="断开" style="edgeLabel;html=1;align=center;verticalAlign=middle;resizable=0;points=[];" vertex="1" connectable="0" parent="c2-VKMNBaWmHMHKHy4jP-29">
          <mxGeometry x="-0.0143" y="-3" relative="1" as="geometry">
            <mxPoint as="offset" />
          </mxGeometry>
        </mxCell>
        <mxCell id="c2-VKMNBaWmHMHKHy4jP-36" style="edgeStyle=orthogonalEdgeStyle;rounded=0;orthogonalLoop=1;jettySize=auto;html=1;exitX=0.5;exitY=1;exitDx=0;exitDy=0;entryX=0.5;entryY=0;entryDx=0;entryDy=0;" edge="1" parent="WIyWlLk6GJQsqaUBKTNV-1" source="c2-VKMNBaWmHMHKHy4jP-34" target="c2-VKMNBaWmHMHKHy4jP-37">
          <mxGeometry relative="1" as="geometry">
            <mxPoint x="490" y="1500" as="targetPoint" />
          </mxGeometry>
        </mxCell>
        <mxCell id="c2-VKMNBaWmHMHKHy4jP-34" value="Socket通知" style="rounded=1;whiteSpace=wrap;html=1;" vertex="1" parent="WIyWlLk6GJQsqaUBKTNV-1">
          <mxGeometry x="430" y="1230" width="120" height="60" as="geometry" />
        </mxCell>
        <mxCell id="c2-VKMNBaWmHMHKHy4jP-38" value="" style="endArrow=none;html=1;rounded=0;" edge="1" parent="WIyWlLk6GJQsqaUBKTNV-1" target="c2-VKMNBaWmHMHKHy4jP-37">
          <mxGeometry width="50" height="50" relative="1" as="geometry">
            <mxPoint x="-10" y="1460" as="sourcePoint" />
            <mxPoint x="1670" y="1460" as="targetPoint" />
          </mxGeometry>
        </mxCell>
        <mxCell id="c2-VKMNBaWmHMHKHy4jP-41" style="edgeStyle=orthogonalEdgeStyle;rounded=0;orthogonalLoop=1;jettySize=auto;html=1;exitX=0.25;exitY=1;exitDx=0;exitDy=0;" edge="1" parent="WIyWlLk6GJQsqaUBKTNV-1" source="c2-VKMNBaWmHMHKHy4jP-37" target="c2-VKMNBaWmHMHKHy4jP-40">
          <mxGeometry relative="1" as="geometry" />
        </mxCell>
        <mxCell id="c2-VKMNBaWmHMHKHy4jP-43" style="edgeStyle=orthogonalEdgeStyle;rounded=0;orthogonalLoop=1;jettySize=auto;html=1;exitX=0.75;exitY=1;exitDx=0;exitDy=0;entryX=0.5;entryY=0;entryDx=0;entryDy=0;" edge="1" parent="WIyWlLk6GJQsqaUBKTNV-1" source="c2-VKMNBaWmHMHKHy4jP-37" target="c2-VKMNBaWmHMHKHy4jP-44">
          <mxGeometry relative="1" as="geometry">
            <mxPoint x="560" y="1540" as="targetPoint" />
          </mxGeometry>
        </mxCell>
        <mxCell id="c2-VKMNBaWmHMHKHy4jP-37" value="KICKED_OUT&lt;br&gt;NET_STATUS_CHANGE" style="rounded=1;whiteSpace=wrap;html=1;" vertex="1" parent="WIyWlLk6GJQsqaUBKTNV-1">
          <mxGeometry x="400" y="1430" width="180" height="60" as="geometry" />
        </mxCell>
        <mxCell id="c2-VKMNBaWmHMHKHy4jP-39" value="展示断网/恢复" style="rounded=1;whiteSpace=wrap;html=1;" vertex="1" parent="WIyWlLk6GJQsqaUBKTNV-1">
          <mxGeometry x="367.5" y="1617.5" width="85" height="32.5" as="geometry" />
        </mxCell>
        <mxCell id="c2-VKMNBaWmHMHKHy4jP-42" style="edgeStyle=orthogonalEdgeStyle;rounded=0;orthogonalLoop=1;jettySize=auto;html=1;exitX=0.5;exitY=1;exitDx=0;exitDy=0;entryX=0.5;entryY=0;entryDx=0;entryDy=0;" edge="1" parent="WIyWlLk6GJQsqaUBKTNV-1" source="c2-VKMNBaWmHMHKHy4jP-40" target="c2-VKMNBaWmHMHKHy4jP-39">
          <mxGeometry relative="1" as="geometry" />
        </mxCell>
        <mxCell id="c2-VKMNBaWmHMHKHy4jP-40" value="&lt;meta charset=&quot;utf-8&quot;&gt;&lt;span style=&quot;color: rgb(0, 0, 0); font-family: Helvetica; font-size: 12px; font-style: normal; font-variant-ligatures: normal; font-variant-caps: normal; font-weight: 400; letter-spacing: normal; orphans: 2; text-align: center; text-indent: 0px; text-transform: none; widows: 2; word-spacing: 0px; -webkit-text-stroke-width: 0px; background-color: rgb(251, 251, 251); text-decoration-thickness: initial; text-decoration-style: initial; text-decoration-color: initial; float: none; display: inline !important;&quot;&gt;NET_STATUS_CHANGE&lt;/span&gt;" style="text;html=1;strokeColor=none;fillColor=none;align=center;verticalAlign=middle;whiteSpace=wrap;rounded=0;" vertex="1" parent="WIyWlLk6GJQsqaUBKTNV-1">
          <mxGeometry x="380" y="1540" width="60" height="30" as="geometry" />
        </mxCell>
        <mxCell id="c2-VKMNBaWmHMHKHy4jP-46" style="edgeStyle=orthogonalEdgeStyle;rounded=0;orthogonalLoop=1;jettySize=auto;html=1;exitX=0.5;exitY=1;exitDx=0;exitDy=0;" edge="1" parent="WIyWlLk6GJQsqaUBKTNV-1" source="c2-VKMNBaWmHMHKHy4jP-44" target="c2-VKMNBaWmHMHKHy4jP-45">
          <mxGeometry relative="1" as="geometry" />
        </mxCell>
        <mxCell id="c2-VKMNBaWmHMHKHy4jP-44" value="&lt;meta charset=&quot;utf-8&quot;&gt;&lt;span style=&quot;color: rgb(0, 0, 0); font-family: Helvetica; font-size: 12px; font-style: normal; font-variant-ligatures: normal; font-variant-caps: normal; font-weight: 400; letter-spacing: normal; orphans: 2; text-align: center; text-indent: 0px; text-transform: none; widows: 2; word-spacing: 0px; -webkit-text-stroke-width: 0px; background-color: rgb(251, 251, 251); text-decoration-thickness: initial; text-decoration-style: initial; text-decoration-color: initial; float: none; display: inline !important;&quot;&gt;KICKED_OUT&lt;/span&gt;" style="text;html=1;strokeColor=none;fillColor=none;align=center;verticalAlign=middle;whiteSpace=wrap;rounded=0;" vertex="1" parent="WIyWlLk6GJQsqaUBKTNV-1">
          <mxGeometry x="540" y="1540" width="60" height="30" as="geometry" />
        </mxCell>
        <mxCell id="c2-VKMNBaWmHMHKHy4jP-45" value="展示被踢，退出小程序" style="rounded=1;whiteSpace=wrap;html=1;" vertex="1" parent="WIyWlLk6GJQsqaUBKTNV-1">
          <mxGeometry x="527.5" y="1617.5" width="85" height="32.5" as="geometry" />
        </mxCell>
      </root>
    </mxGraphModel>
  </diagram>
</mxfile>
